<?xml version="1.0" standalone="no"?>
<!DOCTYPE svg PUBLIC "-//W3C//DTD SVG 20010904//EN"
 "http://www.w3.org/TR/2001/REC-SVG-20010904/DTD/svg10.dtd">
<svg version="1.0" xmlns="http://www.w3.org/2000/svg"
 width="590.000000pt" height="551.000000pt" viewBox="0 0 590.000000 551.000000"
 preserveAspectRatio="xMidYMid meet">
<metadata>
Created by potrace 1.16, written by Peter Selinger 2001-2019
</metadata>
<g transform="translate(0.000000,551.000000) scale(0.100000,-0.100000)"
fill="#000000" stroke="none">
<path d="M4821 4530 c99 -202 220 -527 272 -735 34 -132 63 -291 83 -449 23
-182 15 -551 -15 -726 -62 -362 -154 -614 -361 -984 -29 -52 -31 -60 -17 -73
9 -9 38 -18 66 -21 132 -12 199 28 295 177 114 176 199 413 260 726 43 220 47
674 8 895 -58 321 -181 654 -332 895 -59 93 -180 265 -205 291 -11 11 -37 40
-57 62 -20 23 -39 42 -41 42 -3 0 17 -45 44 -100z"/>
<path d="M2500 4436 c-203 -44 -360 -252 -360 -476 1 -196 101 -365 267 -447
67 -33 86 -38 167 -41 145 -6 245 36 348 145 85 92 128 206 128 341 0 237
-159 441 -375 481 -72 13 -104 13 -175 -3z m89 -151 c88 -31 145 -98 157 -186
12 -90 -40 -185 -127 -229 -113 -58 -246 -13 -304 103 -32 65 -33 125 -1 193
49 105 169 157 275 119z"/>
<path d="M1624 1986 c-60 -28 -106 -71 -160 -152 l-39 -59 5 -370 5 -370 33
-67 c116 -236 434 -264 594 -53 63 82 67 108 69 445 l1 299 -78 108 c-108 149
-136 178 -206 213 -78 39 -150 41 -224 6z"/>
<path d="M2865 1986 c-27 -13 -71 -46 -96 -73 -87 -93 -80 -25 -76 -816 3
-765 1 -734 62 -832 41 -65 104 -121 174 -154 50 -23 68 -26 161 -26 98 1 109
3 166 32 84 44 149 110 187 191 l32 67 3 602 c3 588 2 602 -17 608 -28 9 -97
86 -178 200 -123 173 -193 224 -308 225 -42 0 -75 -7 -110 -24z"/>
<path d="M4136 2000 c-15 -5 -43 -19 -62 -32 l-35 -23 3 -545 3 -545 29 -55
c36 -71 98 -135 161 -168 41 -21 67 -27 147 -30 87 -4 101 -2 153 22 75 34
156 118 187 193 22 56 23 68 26 399 l3 340 -23 11 c-53 26 -124 105 -220 248
-48 71 -122 142 -175 169 -55 27 -136 34 -197 16z"/>
</g>
</svg>
